/* XPM */
static char *_2ad2e4edbe24f8af1fcc53212f55f28zFzu6QaH1kmvkoQP[] = {
/* columns rows colors chars-per-pixel */
"64 64 175 2 ",
"   c None",
".  c #014D95",
"X  c #014F98",
"o  c #01529B",
"O  c #0A5399",
"+  c #13599C",
"@  c #0157A1",
"#  c #015AA5",
"$  c #0D5EA4",
"%  c #015EA9",
"&  c #145DA0",
"*  c #0161AE",
"=  c #1F63A3",
"-  c #0265B2",
";  c #0A67B2",
":  c #0268B6",
">  c #026CBB",
",  c #0B69B4",
"<  c #0270BF",
"1  c #0D71BC",
"2  c #1372BB",
"3  c #1E78BD",
"4  c #2567A5",
"5  c #276CAB",
"6  c #3673AD",
"7  c #2B75B4",
"8  c #4179AF",
"9  c #0273C3",
"0  c #0277C8",
"q  c #027ACC",
"w  c #0E76C2",
"e  c #107CC8",
"r  c #027ED1",
"t  c #207FC4",
"y  c #4E83B6",
"u  c #598CBB",
"i  c #1C82C9",
"p  c #0282D5",
"a  c #0286D9",
"s  c #0289DD",
"d  c #0A8ADB",
"f  c #1584D0",
"g  c #1D87D0",
"h  c #1189D6",
"j  c #138DDB",
"k  c #1D8DD6",
"l  c #1790DD",
"z  c #1B90DC",
"x  c #2587CD",
"c  c #2D8ACC",
"v  c #3C86C0",
"b  c #278CD2",
"n  c #3395D8",
"m  c #028DE2",
"M  c #098EE0",
"N  c #0291E7",
"B  c #0394EB",
"V  c #0398EF",
"C  c #0C93E4",
"Z  c #109AEC",
"A  c #1C95E1",
"S  c #039CF4",
"D  c #0A9BF0",
"F  c #039FF8",
"G  c #03A3FB",
"H  c #03ABFE",
"J  c #0CADFD",
"K  c #17A5F6",
"L  c #1FA7F5",
"P  c #0FB1FE",
"I  c #14B2FF",
"U  c #35A4E9",
"Y  c #24B5FE",
"T  c #2AB6FD",
"R  c #26B9FF",
"E  c #2BBAFF",
"W  c #3FBCFD",
"Q  c #38B6FC",
"!  c #478BC3",
"~  c #498CC3",
"^  c #4191CD",
"/  c #5F95C3",
"(  c #5796C9",
")  c #409EDD",
"_  c #539CD1",
"`  c #6195C3",
"'  c #6C97C1",
"]  c #6C9AC5",
"[  c #7CA3C9",
"{  c #65A6D6",
"}  c #6FACD9",
"|  c #7AB2DC",
" . c #40A7E7",
".. c #4FACE6",
"X. c #57AAE1",
"o. c #5AB4EC",
"O. c #4DBFFC",
"+. c #55B6F0",
"@. c #54BAF5",
"#. c #6AB4E5",
"$. c #70B7E6",
"%. c #7BBCE7",
"&. c #63BFF5",
"*. c #47C4FF",
"=. c #49C4FF",
"-. c #50C4FE",
";. c #77C1EF",
":. c #6BC4F7",
">. c #64CCFE",
",. c #6ACFFF",
"<. c #71C7F8",
"1. c #7CCEFC",
"2. c #7DD2FE",
"3. c #80A6CB",
"4. c #84ACD0",
"5. c #8BB2D4",
"6. c #8BBADD",
"7. c #99B9D6",
"8. c #9ABFDC",
"9. c #95B5D3",
"0. c #83BCE5",
"q. c #9CC0DD",
"w. c #A4C4DF",
"e. c #ADC6DD",
"r. c #B2C9DF",
"t. c #99C8E9",
"y. c #93CEF3",
"u. c #9ECFF0",
"i. c #89D6FE",
"p. c #84D8FF",
"a. c #88D9FF",
"s. c #98D7FB",
"d. c #91D8FE",
"f. c #9DDFFF",
"g. c #A7C9E4",
"h. c #AACAE4",
"j. c #B8CDE2",
"k. c #BED3E5",
"l. c #B5D5ED",
"z. c #A1D6F6",
"x. c #ADD8F3",
"c. c #B5DCF4",
"v. c #B9DFF6",
"b. c #A4E2FF",
"n. c #ADE3FF",
"m. c #B4E7FF",
"M. c #B0E6FF",
"N. c #B6E8FF",
"B. c #BFEBFF",
"V. c #BCEAFF",
"C. c #B9E2FA",
"Z. c #C6D9EA",
"A. c #CADBEB",
"S. c #D0DEEB",
"D. c #C3DDF0",
"F. c #D7E3EE",
"G. c #C7E3F5",
"H. c #CEE5F5",
"J. c #C4ECFF",
"K. c #C9EEFF",
"L. c #DCE8F2",
"P. c #D3EDFC",
"I. c #DDEEF9",
"U. c #DBF2FF",
"Y. c #E4EEF6",
"T. c #E9EFF6",
"R. c #EAF0F6",
"E. c #E4F6FF",
"W. c #EBF5FB",
"Q. c #ECF8FF",
"!. c #F1F6FA",
"~. c #F4FAFE",
"^. c #F9FDFF",
"/. c white",
"(. c #FFFFFF",
/* pixels */
"                                                                                                                                ",
"                                                        . . . . . . . .                                                         ",
"                                              . . . . . . . . . . . . . . . . . .                                               ",
"                                          . . . . . . . . . . . . . . . . . . . . . .                                           ",
"                                    . . . . . . . . . o . o X X X . X o . . X . . . . . . .                                     ",
"                                . . . . . . X X o . . o o o o o o o o o o X o o o . . . . . . .                                 ",
"                              . . . . X . X o o o o o o o o o o o o o o o o o o o X o . . . . . .                               ",
"                            . . . . X X X o o o o o o # o # # @ # # @ @ @ # o o o o o o X X X X . .                             ",
"                        . . . . X X X X o o o o @ # @ # # # # # # # # # # # # # @ @ o o o o X X X . . .                         ",
"                      . . . . . X o o o o o # # # # # % % * * * * * * * % % # # # @ @ @ o o o X X . . . .                       ",
"                    . . . . . o o o o o # # # # % % * * - - - - - - - * * * * % % % # # @ @ o o o . . . . .                     ",
"                  . . . . . . o o o # # # * # * * - - : : : : : > : > : : : : : * * % # # # @ o o o o . . . .                   ",
"                . . . . o X o o o # # # * * * - : : > > > < < 9 9 < < > > > : : : - * % % # # @ o o o o . . . .                 ",
"                . . . X X o o o # # # * * - : : > > < 0 0 0 0 0 q 0 0 q 0 0 9 > > : : : - % % # # @ o o o X . .                 ",
"              . . . X X o o @ # # # * * - : > < 9 0 0 q q r q r q p q q q q 0 0 9 > > : : - % % # @ o o o . X . .               ",
"            . . . . X o o o # # * * * - > < < 0 0 q q p p p a p a p a p p r q q 0 0 9 > : : - % % # # o o o X . . .             ",
"            . . . X o o o # o * * * : > < 9 0 p r p p a s s m m m m a m s a a r r q 0 9 9 : : - * % # @ @ X X X X .             ",
"          . . . X o o o o # * * - : > < 9 q 0 p a s s m m m N N N N N N m m m s a r r q 0 9 : : - * # # @ o X X X . .           ",
"          . . . o o o o * # * - : > < < 0 p p s s m N N B B B B V V V B B N N m m a p r 0 0 9 : : - % % # @ o o X X .           ",
"        . . . . o o o # # * * - > < 9 p p p s s N N B B S S S F S S S S V V B N m m s p r q 9 9 : : - % # # o o X X . .         ",
"        . . . . o o o o * * * > < < 0 p p s m N B B S S S S G G F F F F F S S B B m m M z k f e w 1 ; % % # @ o o X . .         ",
"      . . . . o o # # * * * > < < 0 p p s m N B V S F G G G G G F G G G G G F S V V z.^.(.(.(.(.(.(.(.W.! # # o o o . . .       ",
"      . . . . o o o # # * * > < 0 p p s m N V V S F G G G G G H G G G G G G F F F :.(.(.(.(.(.(.(.(.(.(.( % # @ o X . . .       ",
"      . . . o o o # # * * > < 9 0 p a m N N V G G G G H G G H G H H H G G G G G F P.(.(.(.(.(.(.(.(.(.!., % # # o o o . .       ",
"    . . . X o o o # # * - > < 0 p p s m N V G S G G G H H H H H H H H H H H H G Q (.(.(.(.(.(.(.(.(.(.t.- % # # @ o X X . .     ",
"    . . . X o o @ # % * - < 9 q p p m N N V G G G G G H H H H H H H H H H H H G d.(.(.(.(.(.(.(.(.(.(.^ : - % # @ o o . . .     ",
"    . . . . o @ # # * - > < 0 q p s m N V G G G G H H H H H H H H H H H H H H H Q.(.(.(.(.(.(.(.(.(.I.9 : - % # @ o o X . .     ",
"    . . . o o o # # * - > < 0 q s s N V V G G G H H H H H H H H H H H H H H H -.(.(.(.(.(.(.(.(.(.(.0.9 > - - # @ o o o . .     ",
"    . . . . o @ # # * : > 9 q p s s N S S G G G G R f.V.J.V.N.N.N.n.b.*.H H H M.(.(.(.(.(.(.(.(.(.(.b 9 : : % % # @ o X . .     ",
"  . . . . . o o # # * - > 9 q p s m N V S G G H P E.(.(.(.(.(.(.(.(.(.m.H H I ^.(.(.(.(.(.(.(.(.(.D.0 9 > : - # @ o o o X . .   ",
"  . . . . o o @ # # * : < 9 q p s m B S G G G G >.(.(.(.(.(.(.(.(.(.(.,.H H ,.(.(.(.(.(.(.(.(.(.(.#.q 9 > : - % # o o X . . .   ",
"  . . . X o o o # * - : < 9 q p s m B S S G G H K.(.(.(.(.(.(.(.(.(.^.I H H K.(.(.(.(.(.(.(.(.(.^.j q 9 9 : % % # @ o o . . .   ",
"  . . . X X o # # # * : > 0 q p m m B V S G G T (.(.(.(.(.(.(.(.(.(.b.H H E (.(.(.(.(.(.(.(.(.(.x.p q 0 9 - * % # @ o X X . .   ",
"  . . . X o o o # * * - > 0 q p a m B S G G G i.(.(.(.(.(.(.(.(.(.(.*.H H a.(.(.(.(.(.(.(.(.(.(...r q 9 > : * % @ @ @ X . . .   ",
"  . . . X X o # # % ; 3 i i f h j C B V S G G E.(.(.(.(.(.(.(.(.(.E.H H H E.(.(.(.(.(.(.(.(.(.Q.s p q 9 > : * % # @ X X X . .   ",
"    . . X X o o # q.^.(.(.(.(.(.(.(.~.@.S G O.(.(.(.(.(.(.(.(.(.(.p.H H *.(.(.(.(.(.(.(.(.(.(.y.a r 0 9 > : * % @ @ X X . X     ",
"    . . X X o o / (.(.(.(.(.(.(.(.(.(.&.S F n.(.(.(.(.(.(.(.(.(.(.R H H b.(.(.(.(.(.(.(.(.(.(.U a r 0 9 : : * # @ @ o o . .     ",
"    . . . X o o A.(.(.(.(.(.(.(.(.(.~.Z S K ^.(.(.(.(.(.(.(.(.(.J.H H P ^.(.(.(.(.(.(.(.(.(.P.s a q 9 9 : - * # @ o X X . .     ",
"    . . . X X 5 (.(.(.(.(.(.(.(.(.(.z.N B <.(.(.(.(.(.(.(.(.(.(.>.H H >.(.(.(.(.(.(.(.(.(.(.;.a r q 9 > : - # # @ o X X . .     ",
"    . . . X X 5.(.(.(.(.(.(.(.(.(.(. .m B P.(.(.(.(.(.(.(.(.(.~.P H H V.(.(.(.(.(.(.(.(.(.(.A p r 0 9 : - * # # o o X X . .     ",
"      . . . O R.(.(.(.(.(.(.(.(.(.I.s m U (.(.(.(.(.(.(.(.(.(.f.H H I (.(.(.(.(.(.(.(.(.(.v.p p q 9 > : - % # @ @ o X X .       ",
"      . . . u (.(.(.(.(.(.(.(.(.(.%.p a y.(.(.(.(.(.(.(.(.(.^.O.G H 2.(.(.(.(.(.(.(.(.(.(.o.p q 0 9 > : * % # @ o o X . .       ",
"      . . . j.(.(.(.(.(.(.(.(.(.^.i p d Q.(.(.(.(.(.(.(.(.(.U.G G G U.(.(.(.(.(.(.(.(.(.~.d r 0 9 > : - % # @ @ o X . X .       ",
"        . = ^.(.(.(.(.(.(.(.(.(.l.0 q X.(.(.(.(.(.(.(.(.(.(.1.G G Q (.(.(.(.(.(.(.(.(.(.u.r q 9 9 : - - % # # o o X . .         ",
"        . 3.(.(.(.(.(.(.(.(.(.(._ < 0 c.(.(.(.(.(.(.(.(.(.(.L S S s.(.(.(.(.(.(.(.(.(.(.n p 0 9 : : - # # @ o o o . . .         ",
"        . L.(.(.(.(.(.(.(.(.(.R., > i ^.(.(.(.(.(.(.(.(.(.C.V V D ~.(.(.(.(.(.(.(.(.(.I.q w 9 > : - - # # @ o o . . . .         ",
"          (.(.(.(.(.(.(.(.(.(.6.- : | (.(.(.(.(.(.(.(.(.(.+.N N +.(.(.(.(.(.(.(.(.(.(.0.0 9 > : - - # # @ o o X X . .           ",
"          (.(.(.(.(.(.(.(.(.(.7 * - L.(.(.(.(.(.(.(.(.(.Q.M m m c.(.(.(.(.(.(.(.(.(.(.x 9 : : - % # # # @ o X o . . .           ",
"            (.(.(.(.(.(.(.(.Z.# % v (.(.(.(.(.(.(.(.(.(.y.p p j ^.(.(.(.(.(.(.(.(.(.Z.9 : : : * % # # @ o X X . . .             ",
"              (.(.(.(.(.(.(.` # # q.(.(.(.(.(.(.(.(.(.(.n q r $.(.(.(.(.(.(.(.(.(.(.{ : : - % % # # @ X o o X . .               ",
"              (.(.(.(.(.(.!.$ o $ !.(.(.(.(.(.(.(.(.(.H.0 0 q H.(.(.(.(.(.(.(.(.(.~.1 - - % # # # @ o X X X . . .               ",
"                (.(.(.(.(.7.o o / (.(.(.(.(.(.(.(.(.(.} 9 > c (.(.(.(.(.(.(.(.(.(.g.: % % # # # @ X @ X X . . .                 ",
"                  (.(.(.(.6 o o k.(.(.(.(.(.(.(.(.(.^.2 : : 6.(.(.(.(.(.(.(.(.(.(.~ % # # # @ o X X X X . . .                   ",
"                    (.(.S.. . 4 (.(.(.(.(.(.(.(.(.(.h.* - ; Y.(.(.(.(.(.(.(.(.(.Y.% # # @ @ o o X X X . . .                     ",
"                      (.' . . [ (.(.(.(.(.(.(.(.(.(.~ % % ! (.(.(.(.(.(.(.(.(.(.5.# # @ o o o o X X . . .                       ",
"                        + . . L.(.(.(.(.(.(.(.(.(.Y.# # # g.(.(.(.(.(.(.(.(.(.(.7 @ o o o o X X X X . .                         ",
"                          . 8 (.(.(.(.(.(.(.(.(.(.4.o @ $ ~.(.(.(.(.(.(.(.(.(.A.o o o o X X . . . . .                           ",
"                              (.(.(.(.(.(.(.(.(.^.5 o o ` (.(.(.(.(.(.(.(.(.(.] o o o X . . . . .                               ",
"                                (.(.(.(.(.(.(.(.k.o X o k.(.(.(.(.(.(.(.(.(.^.+ X . . . . . . .                                 ",
"                                    (.(.(.(.(.(.u . . = (.(.(.(.(.(.(.(.(.(.e.X X . . . . .                                     ",
"                                        (.(.(.!.O . . [ (.(.(.(.(.(.(.(.(.(.y . . . . .                                         ",
"                                              9.. . . F.(.(.(.(.(.(.(.(.(.T.. . .                                               ",
"                                                    4 (.(.(.(.(.(.(.(.(.(.r.                                                    ",
"                                                                                                                                "
};
