/* XPM */
static char *_b5a432bc2644438ef0ae294261cafb9Gk6QOOyVFkpE0YBl[] = {
/* columns rows colors chars-per-pixel */
"16 16 126 2 ",
"   c None",
".  c #014C94",
"X  c #014C95",
"o  c #014D95",
"O  c #014D96",
"+  c #014E96",
"@  c #014E97",
"#  c #014F97",
"$  c #014F98",
"%  c #014F99",
"&  c #015099",
"*  c #01519A",
"=  c #01519B",
"-  c #01529B",
";  c #01529C",
":  c #01539C",
">  c #01539D",
",  c #01549D",
"<  c #01549E",
"1  c #01559F",
"2  c #0C589D",
"3  c #0155A0",
"4  c #0157A1",
"5  c #0158A2",
"6  c #0159A4",
"7  c #015AA6",
"8  c #015CA8",
"9  c #015DA8",
"0  c #015DA9",
"q  c #015EAA",
"w  c #015FAB",
"e  c #015FAC",
"r  c #0160AC",
"t  c #0160AD",
"y  c #0161AD",
"u  c #0161AE",
"i  c #0162AF",
"p  c #0262AF",
"a  c #0B61A9",
"s  c #0265B2",
"d  c #0268B6",
"f  c #0269B7",
"g  c #026BBA",
"h  c #026DBB",
"j  c #026DBC",
"k  c #3974AC",
"l  c #2F77B4",
"z  c #2D7BBA",
"x  c #3E7BB3",
"c  c #417BB1",
"v  c #0271C1",
"b  c #0272C1",
"n  c #0273C3",
"m  c #0673C2",
"M  c #0275C6",
"N  c #0277C8",
"B  c #0278C9",
"V  c #027ACB",
"C  c #027ACC",
"Z  c #027DCF",
"A  c #027ED0",
"S  c #6291BE",
"D  c #0281D5",
"F  c #028ADF",
"G  c #1285D2",
"H  c #3696D7",
"J  c #028BE0",
"K  c #028DE3",
"L  c #0291E6",
"P  c #0291E7",
"I  c #0292E9",
"U  c #0393EA",
"Y  c #039DF5",
"T  c #039EF6",
"R  c #03A0F8",
"E  c #03A3FA",
"W  c #03A4FB",
"Q  c #03A8FD",
"!  c #03ABFE",
"~  c #03ACFE",
"^  c #08ABFE",
"/  c #38A9ED",
"(  c #31B3FB",
")  c #3ABEFF",
"_  c #479DD8",
"`  c #599ED2",
"'  c #4CA5DF",
"]  c #67AEDF",
"[  c #59ACE2",
"{  c #63BCF2",
"}  c #51C6FF",
"|  c #6FC3F4",
" . c #6CCBFD",
".. c #8DAFCF",
"X. c #8CB2D3",
"o. c #86B5D9",
"O. c #8EBBDE",
"+. c #9EC2DF",
"@. c #86D8FF",
"#. c #90D3F9",
"$. c #B3CEE4",
"%. c #BFD9ED",
"&. c #A9D7F3",
"*. c #B4DEF8",
"=. c #AEE5FF",
"-. c #B9E8FF",
";. c #CEDDEB",
":. c #C4DDF0",
">. c #D4E0ED",
",. c #C5E1F4",
"<. c #C3E9FE",
"1. c #C7EDFF",
"2. c #C9E9FC",
"3. c #E1EBF4",
"4. c #E7F2FA",
"5. c #E9F1F8",
"6. c #EAF6FD",
"7. c #EAF7FF",
"8. c #EEFAFF",
"9. c #F1F6FA",
"0. c #F3F8FC",
"q. c #F7FBFE",
"w. c #FBFCFD",
"e. c #F9FDFF",
"r. c #FEFFFF",
"t. c white",
/* pixels */
"            + + + .             ",
"        + # = = = = % +         ",
"      + = 5 r r r r 7 > %       ",
"    + > 8 g n V C n h e 1 +     ",
"  + = 8 h A J U U K D b r > +   ",
"  + 4 d Z P Y E W T | ,.%.a %   ",
". % 8 b F Y Q ~ ~ ^ 7.t.:.r > . ",
". = r N P E -.8.1.} t.t.] s > + ",
". = z _ / ( t.t.@.=.t.q.G s > + ",
". 2 9.t.*.#.t.t.) e.t.&.V r > . ",
"  S t.t.[ 7.t.<. .t.t.' j 7 %   ",
"  >.t.5.` t.t.{ 2.t.4.m r > +   ",
"    t.X.$.t.9.H t.t.O.r 4 %     ",
"      c e.t.+.o.t.t.l > %       ",
"        t.t.x 3.t.;.% +         ",
"            k t.t...            "
};
