/* XPM */
static char *_c2e6ae4a12d48ccf98d9697fb7099c012GGOUkTZlW07iQL[] = {
/* columns rows colors chars-per-pixel */
"32 32 129 2 ",
"   c None",
".  c #014D95",
"X  c #014F98",
"o  c #01529C",
"O  c #08549A",
"+  c #165B9D",
"@  c #0156A1",
"#  c #015AA5",
"$  c #015EAA",
"%  c #0161AD",
"&  c #1367AD",
"*  c #0265B3",
"=  c #0268B6",
"-  c #026CBB",
";  c #196FB4",
":  c #0270BF",
">  c #2163A2",
",  c #2E70AC",
"<  c #2B75B3",
"1  c #377FBB",
"2  c #0273C3",
"3  c #0277C8",
"4  c #027ACC",
"5  c #0B7BC9",
"6  c #1879C1",
"7  c #027FD1",
"8  c #3B82BC",
"9  c #4780B4",
"0  c #4A88BD",
"q  c #5587B8",
"w  c #588ABA",
"e  c #6290BD",
"r  c #1283CF",
"t  c #0282D5",
"y  c #0287DB",
"u  c #0289DE",
"i  c #198BD6",
"p  c #2392DB",
"a  c #3398DB",
"s  c #028DE2",
"d  c #0291E7",
"f  c #0395ED",
"g  c #0398EF",
"h  c #039BF4",
"j  c #099DF3",
"k  c #039FF8",
"l  c #2698E0",
"z  c #03A3FB",
"x  c #03ABFE",
"c  c #11A8FB",
"v  c #17B1FE",
"b  c #1EB4FE",
"n  c #39A7EA",
"m  c #2EB6FD",
"M  c #2EBBFF",
"N  c #4B97CF",
"B  c #6E9BC4",
"V  c #5AA3D7",
"C  c #6EA7D3",
"Z  c #7DAFD7",
"A  c #75B3DF",
"S  c #40A2E1",
"D  c #52B7F3",
"F  c #53B8F4",
"G  c #51BBF8",
"H  c #67B4E6",
"J  c #69BBED",
"K  c #74B4E0",
"L  c #7FB9E2",
"P  c #3DC0FF",
"I  c #47C1FE",
"U  c #4AC3FE",
"Y  c #57C1FC",
"T  c #65C2F8",
"R  c #6FCFFE",
"E  c #7AD4FF",
"W  c #81A7CC",
"Q  c #8AB7DA",
"!  c #86B9DF",
"~  c #91B3D2",
"^  c #97BAD8",
"/  c #98BAD8",
"(  c #A9C5DE",
")  c #8CC0E4",
"_  c #82C5EF",
"`  c #8BC5EB",
"'  c #9DCEEF",
"]  c #87C8F0",
"[  c #93CEF3",
"{  c #8ED6FD",
"}  c #8BDAFF",
"|  c #9AD5F7",
" . c #9CDFFF",
".. c #ADCBE4",
"X. c #A9D0EC",
"o. c #BED1E4",
"O. c #B7D5EC",
"+. c #B1DDF7",
"@. c #A7E1FE",
"#. c #A8E3FF",
"$. c #B4E5FE",
"%. c #CBDCEB",
"&. c #C5E4F7",
"*. c #CFE4F3",
"=. c #C1E4F9",
"-. c #CCEEFF",
";. c #D4E6F3",
":. c #D5EAF7",
">. c #DBEAF5",
",. c #D5F1FF",
"<. c #DBF2FE",
"1. c #E2EBF3",
"2. c #EDF2F7",
"3. c #E4F4FD",
"4. c #EDF7FE",
"5. c #EDF5FB",
"6. c #F1F8FC",
"7. c #F7FBFD",
"8. c #F6FCFF",
"9. c #F8FAFC",
"0. c #F9FCFD",
"q. c #FAFDFE",
"w. c #FAFDFF",
"e. c #FCFDFE",
"r. c #FCFEFF",
"t. c #FEFEFF",
"y. c #FEFFFF",
"u. c white",
"i. c #FFFFFF",
/* pixels */
"                                                                ",
"                      . . . . . . . . . .                       ",
"                  . . . . o X o o o X X X . .                   ",
"              . . . o o o o o @ o @ o o o X X . .               ",
"            . . . o o o # # $ # $ $ # # @ o o X X .             ",
"          . . o o # # $ % * * = = * * * $ # # o o . .           ",
"        . . . o @ # % * - - 2 2 2 2 2 - - * $ @ o o . .         ",
"      . . o o # $ * = 2 4 4 7 t t t 4 4 2 - * * # @ o . .       ",
"      . o o # % % - 2 4 t u u s s s s y 7 3 2 = % # o o .       ",
"    . . o o # % - 3 t u s f g h h f f s s t 4 2 * $ # o X .     ",
"    . . o # % - : t u d f h k z k z k h f J ` ) ! Z & o o .     ",
"  . . o o # * : 4 u d g z z z x x z z z G i.i.i.i.i.; # o . .   ",
"  . . o @ $ - 2 t s f z z z x x x x x z $.i.i.i.i.O.* # o X .   ",
"  . o o # * - 4 u d h z x x x x x x x v q.i.i.i.i.V * $ @ X .   ",
"  . . o # * - 4 u f z z I ,.<.<.<.#.x R i.i.i.i.6.5 - $ @ o .   ",
"  . X o # * 2 t u g z z -.i.i.i.i. .x -.i.i.i.i.' 4 - $ @ o .   ",
"  . X @ # * 2 7 s f z m i.i.i.i.i.P M i.i.i.i.i.S 3 - $ # X .   ",
"  . X o < Q ) ` ] D k { i.i.i.i.<.x } i.i.i.i.<.y 2 - $ @ o .   ",
"  . . o %.i.i.i.i.| j 4.i.i.i.i.E x 3.i.i.i.i._ t 2 = $ o o .   ",
"  . . , i.i.i.i.i.n D i.i.i.i.i.b U i.i.i.i.i.l 4 - * # o X .   ",
"  . . ~ i.i.i.i.:.y +.i.i.i.i.$.x @.i.i.i.i.&.t 2 - $ # o X .   ",
"    O 2.i.i.i.i.A i q.i.i.i.i.Y c 8.i.i.i.i.H 4 2 * $ o o X     ",
"    e i.i.i.i.q.6 A i.i.i.i.4.j T i.i.i.i.7.r 2 * $ # o X .     ",
"      i.i.i.i...* ;.i.i.i.i.[ s =.i.i.i.i.X.2 * % # o o .       ",
"      i.i.i.i.0 1 i.i.i.i.i.a p i.i.i.i.i.N * % # @ o . .       ",
"        i.i.1.o / i.i.i.i.*.2 L i.i.i.i.2.* % # @ o X .         ",
"          i.W O 5.i.i.i.i.C * >.i.i.i.i.Q # @ o X . .           ",
"            > w i.i.i.i.0.& 8 i.i.i.i.i.< @ o o X .             ",
"              o.i.i.i.i...o / i.i.i.i.%.o o . . .               ",
"                i.i.i.i.9 O 2.i.i.i.i.B . . . .                 ",
"                      1.. q i.i.i.i.0.+ .                       ",
"                                                                "
};
