/* XPM */
static char *result[] = {
/* columns rows colors chars-per-pixel */
"128 128 83 1 ",
"  c #073B75",
". c #083B73",
"X c #073C79",
"o c #083E7A",
"O c #0C417D",
"+ c #083C89",
"@ c #094384",
"# c #09468B",
"$ c #09498E",
"% c #094493",
"& c #0A4D97",
"* c #0D4E98",
"= c #0F5099",
"- c #12519A",
"; c #19569C",
": c #1D599E",
"> c #215C9F",
", c #245EA1",
"< c #2760A2",
"1 c #2C63A4",
"2 c #3167A6",
"3 c #3469A7",
"4 c #366AA8",
"5 c #3C6EAA",
"6 c #3F70AC",
"7 c #4373AD",
"8 c #4877AF",
"9 c #4D7AB1",
"0 c #527EB3",
"q c #5681B5",
"w c #5983B7",
"e c #5E87B9",
"r c #6087B9",
"t c #6289BA",
"y c #698EBD",
"u c #6D91BF",
"i c #6F92C0",
"p c #7295C1",
"a c #7798C3",
"s c #7C9CC5",
"d c #B7B7B7",
"f c #84A2C9",
"g c #8AA6CB",
"h c #8FAACD",
"j c #93ADCF",
"k c #96AFD0",
"l c #97B0D1",
"z c #9CB4D3",
"x c #A1B7D5",
"c c #A4B9D6",
"v c #A7BCD8",
"b c #A9BDD8",
"n c #AEC1DB",
"m c #B4C5DE",
"M c #B8C8DF",
"N c #BBCBE0",
"B c gray77",
"V c #CFCFCF",
"C c #D1D1DE",
"Z c #DDDDDD",
"A c #C0CEE3",
"S c #C5D3E5",
"D c #C9D5E7",
"F c #CEDAE9",
"G c #DFDFE4",
"H c #D3DDEB",
"J c #D8D8F0",
"K c #D7E0ED",
"L c #DAE2EE",
"P c #DEE6F0",
"I c #E0E0E1",
"U c gray92",
"Y c #E0E7F1",
"T c #E5EAF3",
"R c #EAEEF5",
"E c #EDEDF8",
"W c #EDF1F7",
"Q c #EFF3F8",
"! c #F1F1F1",
"~ c #F3F5F9",
"^ c #F6F8FB",
"/ c #FFFFFF",
"( c None",
/* pixels */
"((((((((((((((((((((((((((((((((((((((((((((((((((((((((@@&&&&&&&&&&&&@@((((((((((((((((((((((((((((((((((((((((((((((((((((((((",
"(((((((((((((((((((((((((((((((((((((((((((((((((( &&&&&&&&&&&&&&&&&&&&&&&&&& ((((((((((((((((((((((((((((((((((((((((((((((((((",
"((((((((((((((((((((((((((((((((((((((((((((((o&&&&&&&&&&&&&&&&&&&&&&&&&&&&&&&&&&O((((((((((((((((((((((((((((((((((((((((((((((",
"(((((((((((((((((((((((((((((((((((((((((((@&&&&&&&&&&&&&&&&&&&&&&&&&&&&&&&&&&&&&&&&@(((((((((((((((((((((((((((((((((((((((((((",
"((((((((((((((((((((((((((((((((((((((((.&&&&&&&&&&&&&&&&&&&&&&&&&&&&&&&&&&&&&&&&&&&&&&X((((((((((((((((((((((((((((((((((((((((",
"(((((((((((((((((((((((((((((((((((((($&&&&&&&&&&&&&&&&&&&&&&&&&&&&&&&&&&&&&&&&&&&&&&&&&&#((((((((((((((((((((((((((((((((((((((",
"((((((((((((((((((((((((((((((((((((&&&&&&&&&&&&&&&&&&&&&&&&&&&&&&&&&&&&&&&&&&&&&&&&&&&&&&&&((((((((((((((((((((((((((((((((((((",
"((((((((((((((((((((((((((((((((((&&&&&&&&&&&&&&&&&&&&&&&&&&&&&&&&&&&&&&&&&&&&&&&&&&&&&&&&&&&&((((((((((((((((((((((((((((((((((",
"(((((((((((((((((((((((((((((((($&&&&&&&&&&&&&&&&&&&&&&&&&&&&&&&&&&&&&&&&&&&&&&&&&&&&&&&&&&&&&&$((((((((((((((((((((((((((((((((",
"(((((((((((((((((((((((((((((( &&&&&&&&&&&&&&&&&&&&&&&&&&&&&&&&&&&&&&&&&&&&&&&&&&&&&&&&&&&&&&&&&& ((((((((((((((((((((((((((((((",
"(((((((((((((((((((((((((((((&&&&&&&&&&&&&&&&&&&&&&&&&&&&&&&&&&&&&&&&&&&&&&&&&&&&&&&&&&&&&&&&&&&&&&(((((((((((((((((((((((((((((",
"(((((((((((((((((((((((((((.&&&&&&&&&&&&&&&&&&&&&&&&&&&&&&&&&&&&&&&&&&&&&&&&&&&&&&&&&&&&&&&&&&&&&&&&.(((((((((((((((((((((((((((",
"((((((((((((((((((((((((((&&&&&&&&&&&&&&&&&&&&&&&&&&&&&&&&&&&&&&&&&&&&&&&&&&&&&&&&&&&&&&&&&&&&&&&&&&&&((((((((((((((((((((((((((",
"(((((((((((((((((((((((((&&&&&&&&&&&&&&&&&&&&&&&&&&&&&&&&&&&&&&&&&&&&&&&&&&&&&&&&&&&&&&&&&&&&&&&&&&&&&&(((((((((((((((((((((((((",
"(((((((((((((((((((((((X&&&&&&&&&&&&&&&&&&&&&&&&&&&&&&&&&&&&&&&&&&&&&&&&&&&&&&&&&&&&&&&&&&&&&&&&&&&&&&&&o(((((((((((((((((((((((",
"((((((((((((((((((((((@&&&&&&&&&&&&&&&&&&&&&&&&&&&&&&&&&&&&&&&&&&&&&&&&&&&&&&&&&&&&&&&&&&&&&&&&&&&&&&&&&&@((((((((((((((((((((((",
"(((((((((((((((((((((&&&&&&&&&&&&&&&&&&&&&&&&&&&&&&&&&&&&&&&&&&&&&&&&&&&&&&&&&&&&&&&&&&&&&&&&&&&&&&&&&&&&&$(((((((((((((((((((((",
"((((((((((((((((((((&&&&&&&&&&&&&&&&&&&&&&&&&&&&&&&&&&&&&&&&&*&&&&&&&&&&&&&&&&&&&&&&&&&&&&&&&&&&&&&&&&&&&&&&((((((((((((((((((((",
"(((((((((((((((((((&&&&&&&&&&&&&&&&&&&&&&&&&&&&&&&&&&&&&&&&&&&&&&&&&&&&&&&&&&&&&&&&&&&&&&&&&&&&&&&&&&&&&&&&&&(((((((((((((((((((",
"((((((((((((((((((&&&&&&&&&&&&&&&&&&&&&&&&&&&&&&&&&&*&&&&&&&&&&&&&&&&&&&&&&&&&&&&&&&&&&&&&&&&&&&&&&&&&&&&&&&&&((((((((((((((((((",
"(((((((((((((((((&&&&&&&&&&&&&&&&&&&&&&&&&&&*&&&&&&&&&&&&&&&&&&&&&&&&&&&&&&&&&&&&&&&&&&&&&&&&&&&&&&&&&&&&&&&&&&(((((((((((((((((",
"((((((((((((((((&&&&&&&&&&&&&&&&&&&&&&&&&&&&&&&&&&&&&&&&&&&&&&&&&&&&&&&&&&&&&&&&&&&&&&&&&&&&&&&&&&&&&&&&&&&&&*&$((((((((((((((((",
"(((((((((((((((@&&&&&&&&&&&&&&&&&&&&&&&&&&&&&&&&&&&&&&&&&&&&&&&&&&&&&&&&&&&&&&&&&&&&&&&&&&&&&&&=&&&&&&&&&&&&&&&&%(((((((((((((((",
"((((((((((((((X&&&&&&&&&&&&&&&&&&&&&&&&&&&&&&&&&&&&&&&&&&&&&&&&&&&&&&&&&&&&&&&&&&&&&&&&&&&&&&&&&&&&&&&&&&&&&&&&&&o((((((((((((((",
"((((((((((((((&&&&&&&&&&&&&&&&&&&&&&&&&&&&&&&&&&&&&&&&&&&&&&&&&&&&&&&&&&&&&&&&&&&&&&&&&&&&&&&&&&&&&&&&&&&&&&&&&&&&((((((((((((((",
"(((((((((((((&&&&&&&&&&&&&&&&&&&&&&&&&&&&&&&&&&&&&&&&&&&&&&&&&&&&&&&&&&&&&&&&&&&&&&&&&&&&&&&&&&&&&&&&&&&&&&&&&&&&&&(((((((((((((",
"((((((((((((&&&&&&&&&&&&&&&&&&&&&&&&&&&&&&&&&&&&&&&&&&&&&&&&&&&&&&&&&&&&&&&&&&&&&&&&&&&&&&&&&&&&&&&&&&&&&&&&&&&&&&&&((((((((((((",
"(((((((((((.&&&&&&&&&&&&&&&&&&&&&&&&&&&&&&&&&&&&&&&&&&&&&&&&&&&&&&&&&&&&&&&&=&&&&&&&&&&&&&&&&&&&&&&&&&&&&&&&&&&&&&&&.(((((((((((",
"(((((((((((&&&&&&&&&&&&&&&&&&&&&&&&&&&&&&&&&&&&&&&&&&&&&&&&&&&&&&&&&&&&&&&&&&&&&&&&&&&&&&&&&&&&&&&&&&&&&&&&&&&&&&&&&&(((((((((((",
"((((((((((&&&&&&&&&&&&&&&&&&&&&&&&&&&&&&&&&&&&&&&&&&&&&&&&&&&&&&&&&&&&&&&&&&&&&&&&&&&&&&&&&&&&&&&&&&&&&&&&&&&&&&&&&&&&((((((((((",
"(((((((((.&&&&&&&&&&&&&&&&&&&&&&&&&&&&&&&&&&&&&&&&&&&&&&&&&*&&&&&&&&&&&&&&&&&&&&&&&&&&&&&&&&&&&&&&&&&&&&&&&&&&&&&&&&&& (((((((((",
"(((((((((&&&&&&&&&&&&&&&&&&&&&&&&&&&&&&&&&&&&&&&&&&&&&&&&&&&&&&&&&&&&&&&&&&&&&&&&&&&&&&&&&&&&&&&&&&&&&&&&&&&&&&&&&&&&&&(((((((((",
"((((((((#&&&&&&&&&&&&&&&&&&&&&&&&&&&&&&&&&&&&&&&&&&&&&&&&&&&&&&&&&&&&&&&&&&&&&&&&&&&&&&&&&&&&&&&&&&&&&&&&&&&&&&&&&&&&&&$((((((((",
"((((((((&&&&&&&&&&&&&&&&&&&&&&&&&&&&&&&&&&&&&&&&&&&&&&&&&&&&&&&&&&&&&&&&&&&&&&&&&&&&&&&&&&&&&&&&&&&&&&&&&&&&&&&&&&&&&&&&((((((((",
"(((((((&&&&&&&&&&&&&&&&&&&&&&&&&&&&&&&&&&&&&&&&&&&&&&&&&&&&&&&&&&&&&&&&&&&&&&&&&&&&&&&&&&&&&&&&&&&&&&&&&&&&&&&&&&&&&&&&&&(((((((",
"(((((((&&&&&&&&&&&&&&&&&&&&&&&&&&&&&&&&&&&&&&&&&&&&&&&&&&&&&&&&&&&&&&&&&&&&&&&&&&&&&&&&&&&&&&&&&&&&&&&&&&&&&&&&&&&&&&&&&&(((((((",
"((((((&&&&&&&&&&&&&&&&&&&&&&&&&&&&&&&&&&&&&&&&&&&&&&&&&&&&&&&&&&&&&&&&&&&&&&&&&&&&&&&&&&&&&&&&&&&&&&&&&&&&&&&&&&&&&&&&&&&&((((((",
"((((((&&&&&&&&&&&&&&&&&&&&&&&&&&&&&&&&&&&&&&&&&&&&&&&&&&&&&&&&&&&&&&&&&&&&&&&&&&&&&&&&&&&&&&&&&&&&&&&&&&&&&&&&&&&&&&&&&&&&((((((",
"(((((#&&&&&&&&&&&&&&&&&&&&&&&&&&&&&&&&&&&&&&&&&&&&&&&&&&&&&&&&&&&&&&&&&&&&&&&&&&&&&&&&&&&&&&&&&&&&&&&&&&&&&&&&&&&&&&&&&&&&#(((((",
"(((((&&&&&&&&&&&&&&&&&&&&&&&&&&&&&&&&&&&&&&&&&&&&&&&&&&&&&&&&&&&&&&&&&&&&&&&&&&&&&&&&&&&&&&&&&&&&&&&&&&&&&&&&&&&&&&&&&&&&&&(((((",
"((((.&&&&&&&&&&&&&&&&&&&&&&&&&&&&&&&&&&&&&&&&&&&&&&&&&&&&&&&&&&&&&&&&&&&&&&&&&&&&&&&&&&&&&&&&&&&&&&&&&&&&&&&&&&&&&&&&&&&&&& ((((",
"((((&&&&&&&&&&&&&&&&&&&&&&&&&&&&&&&&&&&&&&&&&&&&&&&&&&&&&&&&&&&&&&&&&&&&&&&&&&&&&&&&&&-gFHHHHHHHHHHHHHHHFt&&&&&&&&&&&&&&&&&&((((",
"((((&&&&&&&&&&&&&&&&&&&&&&&&&&&&&&&&&&&&&&&&&&&&&&&&&&&&&&&&&&&&&&&&&&&&&&&&&&&&&&&&&u////////////////////q&&&&&&&&&&&&&&&&&((((",
"(((@&&&&&&&&&&&&=&&&&&&&&&&&&&&&&&&&&&&&&&&&&&&&&&&&&&&&&&&&&&&&&&&&&&&&&&&&&&&&&&&&4/////////////////////g&&&&&&&&&&&&&&&&&%(((",
"(((&&&&&&&&&&&&&&&&&&&&&&&&&&&&&&&&&&&&&&&&&&&&&&&&&&&&&&&&&&&&&&&&&&&&&&&&&&&&&&&&&K/////////////////////7&&&&&&&&&&&&&&&&&&(((",
"(((&&&&&&&&&&&&&&&&&&&&&&&&&&&&&&&&&&&&&&&&&&&&&&&&&&&&&&&&&&&&&&&&&&&&&&&&&&&&&&&&</////////////////////~=&&&&&&&&&&&&&&&&&&(((",
"((O&&&&&&&&&&&&&&&&&&&&&&&&&&&&&&&&&&&&&&&&&&&&&&&&&&&&&&&&&&&&&&&&&&&&&&&&&&&&&&&&l/////////////////////z&&&&&&&&&&&&&&&&&&&o((",
"((&&&&&&&&&&&&&&&&&&&&&&&&&&&&&&&&&&&&&&&&&&&&&&&&&&&&&&&&&&&&&&&&&&&&&&&&&&&&&&&&&Q/////////////////////<&&&&&&&&&&&&&&&&&&&&((",
"((&&&&&&&&&&&&&&&&&&&&&&&&&&&&&&&&&&&&&&&&&&&&&&&&&&&&&&&&&&&&&&&&&&&&&&&&&&&&&&&&7/////////////////////T&&&&&&&&&&&&&&&&&&&&&((",
"((&&&&&&&&&&&&&&&&&&&&&&&&&&&&&&&&&&&&&&&&&&&&&&&&&&&&&&&&&&&&&&&&&&&&&&&&&&&&&&&&M/////////////////////s&&&&&&&&&&&&&&&&&&&&&((",
"(X&&&&&&&&&&&&&&&&&&&&&&&&&&&&&&&&&&&&&&&&&&&&&&&&&&&&&&&&&&&&&&&&&&&&&&&&&&&&&&&=//////////////////////;&&&&&&&&&&&&&&&&&&&&&o(",
"($&&&&&&&&&&&&&&&&&&&&&&&&&&&&&&&&&&&&&&&&&&&&&&&&&&&&&&&&&&&&&&&&&&&&&&&&&&&&&&&e/////////////////////F&&&&&&&&&&&&&&&&&&&&&&$(",
"(&&&&&&&&&&&&&&&&&&&&&&&&&&&&&&&&&&&&&&&&&&&&&&&&&&&&&&&&&&&&&&&&&&&&&&&&&&&&&&&&H/////////////////////q&&&&&&&&&&&&&&&&&&&&&&&(",
"(&&&&&&&&&&&&&&&&&&&&&&&&&&&&&&&&&&&&&&&&&&&&&&&&&&&&&&&&&&&&&&&&&&&&&&&&&&&&&&&://///////////////////^=&&&&&&&&&&&&&&&&&&&&&&&(",
"(&&&&&&&&&&&&&&&&&&&&&&&&&&&&&&&&&&&&&=&&&&&&&&&&&&&&&&&&&&&&&&&&&&&&&&&&&&&&&&&f/////////////////////n&&&&&&&&&&&&&&&&&&&&&&&&(",
"(&&&&&&&&&&&&&&&&&&&&&&&&&&&&&&&&&&&&&&&&&&&&&&&&&&&&===-====-==----*-&&&&&&&&&&R/////////////////////3&&&&&&&&&&&&&&&&&&&&&&&&(",
"@&&&&&&&&&&&&&&&&&&&&&&&&&&&&&&&&&&&&&&&&&&&&&&&&&&,m^////////^///////~0&&&&&&&2/////////////////////R&&&&&&&&&&&&&&&&&&&&&&&&&@",
"@&&&&&&&&&&&&&&&&&&&&&&&&&&&&&&&&&&&&&&&&&&&&&&&&&7////////////////////W&&&&&&&b/////////////////////g&&&&&&&&&&&&&&&&&&&&&&&&&@",
"&&&&&&&&&&&&&&&&&&&&&&&&&&&&&&&&&&&&&&&&&&&&&&&&&=Q////////////////////^&&&&&&*^/////////////////////:&&&&&&&&&&&&&&&&&&&&&&&&&&",
"&&&&&&&&&&&&&&&&&&&&&&&&&&&&&&&&&&&&&&&&&&&&&&&&&a/////////////////////m&&&&&&9/////////////////////H&&&&&&&&&&&&&&&&&&&&&&&&&&&",
"&&&&&&&&&&&&&&&&&&&&&&&&&&&&&&&&&&&&&&&&&&&&&&&&&T/////////////////////5&&&&&*D/////////////////////e&&&&&&&&&&&&&&&&&&&&&&&&&&&",
"&&&&&&&&&&&&&&&&&&&&&&&&&&&&&&&&&&&&&&&&&&&&&&&&1/////////////////////Q&&&&&&-//////////////////////*&&&&&&&&&&&&&&&&&&&&&&&&&&&",
"&&&&&&&&&&&&&&&&&=&&&&&&&&&&&&&&&&&&&&&&&&&&&&&&x/////////////////////k&&&&&&p/////////////////////m&&&&&&&&&&&&&&&&&&&&&&&&&&&&",
"&&&&&&&&&&&&&&&&&&&&&&&&&&&&&&&&&&&&&&&&&&&&&&&&^/////////////////////,&&&&&&Y/////////////////////5&&&&&&&&&&&&&&&&&&&&&&&&&&&&",
"&&&&&&&&&&&&&&&&&&&&&&&&&&&&&&&&&&&&&&&&&&&&&&&9/////////////////////P&&&&&&,/////////////////////Q&&&&&&&&&&&&=&&&&&&&&&&&&&&&&",
"&&&&&&&&&&&&&&&&&&&&&&&&&&&&&&&&&&&&&&&&&&&&&&&A/////////////////////u&&&&&&k/////////////////////h&&&&&&&&&&&&&&&&&&&&&&&&&&&&&",
"&&&&&&&&&&&&&&&&&&&&&&&&&&&&&&&&&&&&&&&&&&&&&&-^/////////////////////-&&&&&&~/////////////////////,&&&&&&&&&&&&&&&&&&&&&&&&&&&&&",
"&&&&&&&&&&&&&&&&&&&&&&&&&&&&&&&&&&&&&&&&&&&&&&y/////////////////////S&&&&&&7/////////////////////L&&&&&&&&&&&&&&&&&&&&&&&&&&&&&&",
"&&&&&&&&&&&&&&&&&&&&&&&&&&&&&&&&&&&&&&&&&&&&&&L/////////////////////9&&&&&&N/////////////////////y&&&&&&&&&&&&&&&&&&&&&&&&&&&&&&",
"&&&&&&&&&&&&&&&&&&*-1111111111111111<&&&&&&&&,/////////////////////^&&&&&&-^/////////////////////-&&&&&&&&&&&&&&&&&&&&&&&&&&&&&&",
"@&&&&&&&&&&&&&&&&;m//////////////////H*&&&&&&g/////////////////////x&&&&&&t/////////////////////N&&&&&&&&&&&&&&&&&&&&&&&&&&&&&&@",
"@&&&&&&&&&&&&&&&;~////////////////////7&&&&&&W/////////////////////<&&&&&&H/////////////////////7&&&&&&&&&&&&&&&&&&&&&&&&&&&&&&@",
"(&&&&&&&&&&&&&&&A/////////////////////5&&&&&4/////////////////////T&&&&&&://///////////////////~&&&&&&&&&&&&&&&&&&&&&&&&&&&&&&&(",
"(&&&&&&&&&&&&&&,/////////////////////^&&&&&&n/////////////////////s&&&&&&f/////////////////////z&&&&&&&&&&&&&&&&&&&&&&&&&&&&&&&(",
"(&&&&&&&&&&&&&&j/////////////////////b&&&&**^/////////////////////;&&&&&&R/////////////////////<&&&&&&&&&&&&&&&&&&&&&&&&&&&&&&&(",
"(&&&&&&&&&&&&&&~/////////////////////3&&&&&0/////////////////////F&&&&&&1/////////////////////Y&&&&&&&&&&&&&&&&&&&&&&&&&&&&&&&&(",
"(&&&&&&&&&&&&&7/////////////////////R&&&&&&F/////////////////////w&&&&&&b/////////////////////p&&&&&&&&&&&&&&&&&&&&&&&&&&&&&&&&(",
"(X&&&&&&&&&&&&N/////////////////////f&&&&&-/////////////////////^*&&&&&&^/////////////////////-&&&&&&&&&&&&&&&&&&&&&&&&&&&&&&&o(",
"((&&&&&&&&&&&-^/////////////////////:&&&&&a/////////////////////n&&&&&&0/////////////////////S&&&&&&&&&&&&&&&&&&&&&&&&&&&&&&&&((",
"((&&&&&&&&&&&t/////////////////////K&&&&&&Y/////////////////////4&&&&&&S/////////////////////9&&&&&&&&&&&&&&&&&&&&&&&&&&&&&&&&((",
"((&&&&&&&&&&&L/////////////////////t&&&&&</////////////////////W&&&&&&-/////////////////////^&&&&&&&&&&&&&&&&&&&&&&&&&&&&&&&&&((",
"((o&&&&&&&&&>/////////////////////^-&&&&&z/////////////////////g&&&&&&p/////////////////////x&&&&&&&&&&&&&&&&&&&&&&&&&&&&&&&&O((",
"(((&&&&&&&&&h/////////////////////M&&&&&&~/////////////////////:&&&&&&Y/////////////////////1&&&&&&&&&&&&&&&&&&&&&&&&&&&&&&&&(((",
"(((&&&&&&&&&Q/////////////////////6&&&&&7/////////////////////H&&&&&&,/////////////////////T&&&&&&&&&&&&&&&&&&&&&&&&&&&&&&&&&(((",
"(((@&&&&&&&5/////////////////////~&&&&&&N/////////////////////t&&&&&&k/////////////////////a&&&&&&&&&&&&&&&&&&&&&&&&&&&&&&&&#(((",
"((((&&&&&&&N/////////////////////j&&&&&-^////////////////////^*&&&&&&~/////////////////////;&&&&&&&&&&&&&&&&&&&&&&&&&&&&&&&&((((",
"((((&&&&&&*^/////////////////////,&&&&&t/////////////////////N&&&&&&5/////////////////////D&&&&&&&&&&&&&&&&&&&&&&&&&&&&&&&&&((((",
"(((( &&&&&t/////////////////////P&&&&&&H/////////////////////6&&&&&&M/////////////////////0&&&&&&&&&&&&&&&&&&&&&&&&&&&&&&&&.((((",
"(((((&&&&&K/////////////////////i&&&&&://///////////////////~&&&&&&-^////////////////////^**&&&&&&&&&&&&&&&&&&&&&&&&&&&&&&&(((((",
"(((((#&&&://///////////////////^-&&&&&f/////////////////////j&&&&&&r/////////////////////b&&&&&&&&&&&&&&&&&&&&&&&&&&&&&&&&#(((((",
"((((((&&&g/////////////////////S&&&&&&R/////////////////////,&&&&&&H/////////////////////2&&&&&&&&&&&&&&&&&&&&&&&&&&&&&&&&((((((",
"((((((&&&E/////////////////////8&&&&&1/////////////////////L&&&&&&://///////////////////R&&&&&&&&&&&&&&&&&&&&&&&&&&&&&&&&&((((((",
"(((((((&5/////////////////////^&&&&&&v/////////////////////u&&&&&&f/////////////////////f&&&&&&&&&&&&&&&&&&&&&&&&&&&&&&&&(((((((",
"(((((((&m/////////////////////z&&&&&*^/////////////////////-&&&&&&R/////////////////////:&&&&&&&&&&&&&&&&&&&&&&&&&&&&&&&&(((((((",
"((((((((^/////////////////////1&&&&&9/////////////////////N&&&&&&2/////////////////////H&&&&&&&&&&&&&&&&&&&&&&&&&&&&&&&&((((((((",
"((((((((d////////////////////Y&&&&&&S/////////////////////8&&&&&&b/////////////////////w&&&&&&&&&&&&&&&&&&&&&&&&&&&&&&&#((((((((",
"(((((((((////////////////////a*&&&&-/////////////////////^&&&&&&*^/////////////////////=&&&&&&&&&&&&&&&&&&&&&&&&&&&&&&&(((((((((",
"((((((((((///////////////////-&&&&&i/////////////////////z&&&&&&9/////////////////////m&&&&&&&&&&&&&&&&&&&&&&&&&&&&&&& (((((((((",
"((((((((((U/////////////////D&&&&&&P/////////////////////<&&&&&&D/////////////////////4&&&&&&&&&&&&&&&&&&&&&&&&&&&&&&&((((((((((",
"(((((((((((/////////////////0&&&&&,/////////////////////Y&&&&&&-/////////////////////E&&&&&&&&&&&&&&&&&&&&&&&&&&&&&&&(((((((((((",
"((((((((((((///////////////^*&&&&&j/////////////////////a&&&&&&p/////////////////////g&&&&&&&&&&&&&&&&&*&&&&&&&&&&&&+(((((((((((",
"((((((((((((G//////////////b&&&&&&~/////////////////////-&&&&&&Y/////////////////////:&&&&&&&&&&&&&&&&&&&&&&&&&&&&&&((((((((((((",
"(((((((((((((^/////////////2&&&&&5/////////////////////D&&&&&&,/////////////////////L&&&&&&&&&&&&&&&&&&&&&&&&&&&&&&(((((((((((((",
"((((((((((((((////////////T&&&&&&m/////////////////////9&&&&&&k/////////////////////t&&&*&&&&&&&&&&&&&&&&&&&&&&&&&((((((((((((((",
"(((((((((((((((///////////s&&&&&*^////////////////////^*&&&&&&~/////////////////////&&&&&&&&&&&&&&&&&&&&&&&&&&&&&o((((((((((((((",
"(((((((((((((((V//////////;&&&&*q/////////////////////v&&&&&&6/////////////////////M&&&&&&&&&&&&&&&&&&&&&&&&&&&&#(((((((((((((((",
"((((((((((((((((J////////F&&&&&&H/////////////////////1&&&&&&M/////////////////////5&&&&&&&&&&&&&&&&&&&&&&&&&&&&((((((((((((((((",
"(((((((((((((((((!///////w&&&&&;/////////////////////R&&&&&&-^////////////////////~&&&&&&&&&&&&&&&&&&&&&&&&&&&&(((((((((((((((((",
"((((((((((((((((((~/////^*&&&&&s/////////////////////s&&&&&&e/////////////////////j&&&&&&&&&&&&&&&&&&&&&&&&&&&((((((((((((((((((",
"(((((((((((((((((((!////m&&&&&&R/////////////////////:&&&&&&H/////////////////////>&&&&&&&&&&&&&&&&&&&&&&&&&&(((((((((((((((((((",
"((((((((((((((((((((!///4&&&&&1/////////////////////F&&&&&&://///////////////////L&&&&&&&&&&&&&&&&&&&&&&&&&&((((((((((((((((((((",
"(((((((((((((((((((((!/E&&&&&&z/////////////////////w&&&&&&f/////////////////////u&&&&&&&&&&&&&&&&&&&&&&&&&(((((((((((((((((((((",
"((((((((((((((((((((((Vg&&&&&&^////////////////////^*&&&&&&R/////////////////////=&&&&&&&&&&&&&&&&&&&&&&*%((((((((((((((((((((((",
"(((((((((((((((((((((((O&&&&&7/////////////////////n&&&&&&2/////////////////////A&&&&&&&&&&&&&&&&&&&&&&&o(((((((((((((((((((((((",
"(((((((((((((((((((((((((&&&&N/////////////////////4&&&&&&v/////////////////////8&&&&&&&&&&&&&&&&&&&&&*(((((((((((((((((((((((((",
"((((((((((((((((((((((((((&&-/////////////////////W&&&&&&&^////////////////////~&&&&&&&&&&&&&&&&&&&&&&((((((((((((((((((((((((((",
"((((((((((((((((((((((((((( y/////////////////////g&&&&&&9/////////////////////z&&&&&&&&&&&&&&&&&&&& (((((((((((((((((((((((((((",
"(((((((((((((((((((((((((((((^////////////////////:&&&&&&S/////////////////////,&&&&&&&&&&&&&&&&&&&(((((((((((((((((((((((((((((",
"(((((((((((((((((((((((((((((((//////////////////H&&&&&&-/////////////////////Y&&&&&&&&&&&&&&&&&& ((((((((((((((((((((((((((((((",
"((((((((((((((((((((((((((((((((U////////////////r&&&&&&p/////////////////////p&&&&&&&&&&&&&&&&#((((((((((((((((((((((((((((((((",
"((((((((((((((((((((((((((((((((((E//////////////*&&&&&&Y/////////////////////-&&&&&&&&&&&&&&&((((((((((((((((((((((((((((((((((",
"((((((((((((((((((((((((((((((((((((^///////////M&&&&&&,/////////////////////S&&&&&&&&&&&&&&((((((((((((((((((((((((((((((((((((",
"((((((((((((((((((((((((((((((((((((((U/////////5&&&&&&j/////////////////////9&&&&&&&&&&&#((((((((((((((((((((((((((((((((((((((",
"((((((((((((((((((((((((((((((((((((((((B//////~&&&&&&&~////////////////////^&&&&&&&&&& ((((((((((((((((((((((((((((((((((((((((",
"(((((((((((((((((((((((((((((((((((((((((((Z///j&&&&&&7/////////////////////x&&&&&&&@(((((((((((((((((((((((((((((((((((((((((((",
"((((((((((((((((((((((((((((((((((((((((((((((C>&&&&&&m/////////////////////1&&&&o((((((((((((((((((((((((((((((((((((((((((((((",
"((((((((((((((((((((((((((((((((((((((((((((((((((o&&-/////////////////////T$X((((((((((((((((((((((((((((((((((((((((((((((((((",
"((((((((((((((((((((((((((((((((((((((((((((((((((((((((II////////////IZ(((((((((((((((((((((((((((((((((((((((((((((((((((((((("
};
