/* XPM */
static char *result[] = {
/* columns rows colors chars-per-pixel */
"16 16 86 1 ",
"  c #064A95",
". c #074A96",
"X c #074B96",
"o c #084B96",
"O c #084C96",
"+ c #094C97",
"@ c #0A4D97",
"# c #0B4E97",
"$ c #0C4E98",
"% c #0E5099",
"& c #0F5199",
"* c #16559C",
"= c #16569C",
"- c #17569C",
"; c #17579D",
": c #1A589E",
"> c #1A599E",
", c #235FA2",
"< c #2560A2",
"1 c #2561A3",
"2 c #2963A4",
"3 c #366DA9",
"4 c #3C71AC",
"5 c #3D72AC",
"6 c #3E72AD",
"7 c #4577B0",
"8 c #497AB2",
"9 c #4B7CB2",
"0 c #5684B7",
"q c #5885B8",
"w c #5986B8",
"e c #5A87B9",
"r c #5F8ABB",
"t c #638EBD",
"y c #658FBD",
"u c #668FBE",
"i c #6790BE",
"p c #6B93C0",
"a c #6C94C0",
"s c #6F96C2",
"d c #759AC4",
"f c #7B9FC7",
"g c #7DA0C8",
"h c #85A6CB",
"j c #88A9CC",
"k c #8CABCE",
"l c #90AED0",
"z c #93B0D1",
"x c #94B1D1",
"c c #9AB5D4",
"v c #A3BCD8",
"b c #A5BED9",
"n c #AAC1DB",
"m c #ACC2DB",
"M c #AFC5DD",
"N c #B0C5DD",
"B c #B4C8DF",
"V c #B7CBE0",
"C c #C0D1E4",
"Z c #C3D3E6",
"A c #C5D5E6",
"S c #CAD8E8",
"D c #CCD9E9",
"F c #D2DEEC",
"G c #D6E1ED",
"H c #D9E3EF",
"J c #DAE4EF",
"K c #DBE4EF",
"L c #E1E9F2",
"P c #E5ECF4",
"I c #E6EDF4",
"U c #E8EEF5",
"Y c #E9EFF5",
"T c #E9EFF6",
"R c #EAF0F6",
"E c #F2F5F9",
"W c #F2F6FA",
"Q c #F4F7FA",
"! c #F5F8FB",
"~ c #F7F9FC",
"^ c #F9FBFD",
"/ c #FBFCFD",
"( c #FCFDFE",
") c #FDFDFE",
"_ c white",
"` c None",
/* pixels */
"`````@@@@@@`````",
"```@@@@@@@@@@```",
"``@@@@@@@@@@@@``",
"`@@@@@@@@@@++@@`",
"`@@@@@@@@@$*=%@`",
"@@@@@@+OOoySZ6X@",
"@@@@@@>2,:A_K<O@",
"@@X  -MUB0W_x+@@",
"@%7q59!_zl_Q8.@@",
" 4Y_cz_ErF_A;+@@",
"Xh_~aF_Ci^_fX@@@",
"`G_Ds^_gv_T3X@@`",
"`__kb_IwL_N&@@@`",
"``PuL_md_)t @@``",
"```j(/pV_H1O@```",
"`````JeR_n#`````"
};
