/* XPM */
static char *result[] = {
/* columns rows colors chars-per-pixel */
"32 32 151 2 ",
"   c #064A95",
".  c #074B96",
"X  c #084B96",
"o  c #084C96",
"O  c #094C96",
"+  c #094C97",
"@  c #094D97",
"#  c #0A4D97",
"$  c #0B4D97",
"%  c #0B4E98",
"&  c #0C4E98",
"*  c #0D4F98",
"=  c #0F5099",
"-  c #105199",
";  c #11529A",
":  c #12529A",
">  c #13539B",
",  c #14549B",
"<  c #16569C",
"1  c #17569C",
"2  c #18579D",
"3  c #19579D",
"4  c #19589D",
"5  c #1A589E",
"6  c #1B599E",
"7  c #1E5B9F",
"8  c #1F5CA0",
"9  c #205DA0",
"0  c #225EA1",
"q  c #235FA1",
"w  c #245FA2",
"e  c #2460A2",
"r  c #2560A2",
"t  c #2862A3",
"y  c #2963A4",
"u  c #2A63A4",
"i  c #2A64A4",
"p  c #2B65A5",
"a  c #2D66A6",
"s  c #3169A7",
"d  c #336BA8",
"f  c #346BA8",
"g  c #356CA9",
"h  c #366CA9",
"j  c #366DAA",
"k  c #376DAA",
"l  c #386EAA",
"z  c #3B70AB",
"x  c #3C71AC",
"c  c #3D72AC",
"v  c #4779B0",
"b  c #4779B1",
"n  c #4A7BB2",
"m  c #4B7CB2",
"M  c #4C7CB3",
"N  c #4C7DB3",
"B  c #4D7DB3",
"V  c #507FB4",
"C  c #5985B8",
"Z  c #5A87B9",
"A  c #5C88BA",
"S  c #618BBC",
"D  c #618CBC",
"F  c #638DBD",
"G  c #658FBD",
"H  c #668FBE",
"J  c #6790BE",
"K  c #6A92BF",
"L  c #7097C2",
"P  c #7298C3",
"I  c #749AC4",
"U  c #769BC5",
"Y  c #799DC6",
"T  c #7B9FC7",
"R  c #7C9FC7",
"E  c #7DA0C7",
"W  c #7EA1C8",
"Q  c #7FA2C8",
"!  c #81A3C9",
"~  c #83A5CA",
"^  c #86A7CC",
"/  c #88A8CC",
"(  c #91AED0",
")  c #92AFD0",
"_  c #93B0D1",
"`  c #94B1D1",
"'  c #96B2D2",
"]  c #97B3D2",
"[  c #98B4D3",
"{  c #9AB5D4",
"}  c #9CB6D5",
"|  c #9DB7D5",
" . c #A0B9D6",
".. c #A7BFDA",
"X. c #AAC1DB",
"o. c #ABC2DB",
"O. c #ACC2DB",
"+. c #ADC3DC",
"@. c #AEC3DC",
"#. c #AFC4DD",
"$. c #B1C6DD",
"%. c #B2C6DE",
"&. c #B3C7DE",
"*. c #B7CAE0",
"=. c #BCCEE2",
"-. c #BDCEE3",
";. c #BECFE3",
":. c #C5D5E6",
">. c #C6D5E6",
",. c #C6D5E7",
"<. c #C8D6E7",
"1. c #C9D8E8",
"2. c #CAD8E8",
"3. c #CCD9E9",
"4. c #CEDBEA",
"5. c #CFDCEA",
"6. c #D6E1ED",
"7. c #D7E2EE",
"8. c #D8E3EE",
"9. c #D9E3EF",
"0. c #DBE4EF",
"q. c #DCE5F0",
"w. c #DDE6F0",
"e. c #E1E9F2",
"r. c #E3EAF3",
"t. c #E4EBF3",
"y. c #E4EBF4",
"u. c #E6ECF4",
"i. c #E6EDF4",
"p. c #E7EDF5",
"a. c #E8EEF5",
"s. c #E9EFF5",
"d. c #EAEFF6",
"f. c #EAF0F6",
"g. c #EBF0F6",
"h. c #ECF1F7",
"j. c #EDF2F7",
"k. c #EFF3F8",
"l. c #F0F4F9",
"z. c #F4F7FA",
"x. c #F5F8FB",
"c. c #F6F8FB",
"v. c #F7F9FB",
"b. c #F7F9FC",
"n. c #F8FAFC",
"m. c #FBFCFD",
"M. c #FCFDFE",
"N. c #FDFDFE",
"B. c #FDFEFE",
"V. c white",
"C. c None",
/* pixels */
"C.C.C.C.C.C.C.C.C.C.C.C.# # # # # # # # C.C.C.C.C.C.C.C.C.C.C.C.",
"C.C.C.C.C.C.C.C.C.# # # # # # # # # # # # # # C.C.C.C.C.C.C.C.C.",
"C.C.C.C.C.C.C.# # # # # # # # # # # # # # # # # # C.C.C.C.C.C.C.",
"C.C.C.C.C.C.# # # # # # # # # # # # # # # # # # # # C.C.C.C.C.C.",
"C.C.C.C.C.# # # # # # # # # # # # # # # # # # # # # # C.C.C.C.C.",
"C.C.C.C.# # # # # # # # # # # # # # # # # # # # # # # # C.C.C.C.",
"C.C.C.# # # # # # # # # # # # # # # # # # # # # # # # # # C.C.C.",
"C.C.# # # # # # # # # # # # # # # # # # # # # # # # # # # # C.C.",
"C.C.# # # # # # # # # # # # # # # # # # # # # # # # # # # # C.C.",
"C.# # # # # # # # # # # # # # # # # # # # o % & & & # # # # # C.",
"C.# # # # # # # # # # # # # # # # # # # * K o.o.o.+.D O # # # C.",
"C.# # # # # # # # # # # # # # # # # # . h d.V.V.V.V.Y . # # # C.",
"# # # # # # # # # # # # # o o o o o # . R V.V.V.V.a.f . # # # # ",
"# # # # # # # # # # # # * w u y i 0 $ 1 :.V.V.V.V.@.= # # # # # ",
"# # # # # # # # # # # o H w.t.r.u.-.2 b z.V.V.V.M.D   # # # # # ",
"# # # # # # # # # # + 4 1.V.V.V.V.O.* ) V.V.V.V.9.r o # # # # # ",
"# # # # . . X X . o   M x.V.V.V.m.A 7 6.V.V.V.V.] # # # # # # # ",
"# # # & C ( ( ( ) B X ' V.V.V.V.7.8 Z m.V.V.V.x.m   # # # # # # ",
"# # . g p.V.V.V.V.U 9 8.V.V.V.V._ & ..V.V.V.V.<.3 + # # # # # # ",
"# # . E V.V.V.V.s.s A m.V.V.V.z.v p t.V.V.V.V.W . # # # # # # # ",
"C.+ 2 ,.V.V.V.V.#.> X.V.V.V.V.>., L V.V.V.V.g.l . # # # # # # C.",
"C.  n z.V.V.V.M.S a u.V.V.V.V.T - =.V.V.V.V.&.- # # # # # # # C.",
"C.# ` V.V.V.V.0.0 P V.V.V.V.d.d x k.V.V.V.B.J   # # # # # # # C.",
"C.C.e.V.V.V.V.[ , ;.V.V.V.V.$.* ^ V.V.V.V.w.t o # # # # # # C.C.",
"C.C.V.V.V.V.c.n c l.V.V.V.N.F 2 4.V.V.V.V.} $ # # # # # # # C.C.",
"C.C.C.V.V.V.1.2 / V.V.V.V.q.q V b.V.V.V.v.V   # # # # # # C.C.C.",
"C.C.C.C.V.V.Q 5 5.V.V.V.V.{ $ | V.V.V.V.3.6 + # # # # # C.C.C.C.",
"C.C.C.C.C.i.j V n.V.V.V.c.N e w.V.V.V.V.~ X # # # # # C.C.C.C.C.",
"C.C.C.C.C.C.,  .V.V.V.V.2.< G N.V.V.V.j.x . # # # # C.C.C.C.C.C.",
"C.C.C.C.C.C.C.y.V.V.V.V.! * %.V.V.V.V.*.: @ # # # C.C.C.C.C.C.C.",
"C.C.C.C.C.C.C.C.C.V.V.g.k g f.V.V.V.B.K   # # C.C.C.C.C.C.C.C.C.",
"C.C.C.C.C.C.C.C.C.C.C.C.; I V.V.V.V.h.z C.C.C.C.C.C.C.C.C.C.C.C."
};
