/* XPM */
static char *result[] = {
/* columns rows colors chars-per-pixel */
"64 64 245 2 ",
"   c #064A95",
".  c #074A95",
"X  c #064A96",
"o  c #074A96",
"O  c #074B96",
"+  c #084B96",
"@  c #084C96",
"#  c #094C96",
"$  c #094C97",
"%  c #094D97",
"&  c #0A4D97",
"*  c #0B4D97",
"=  c #0B4E97",
"-  c #0C4E98",
";  c #0D4F98",
":  c #0E4F98",
">  c #0E5099",
",  c #0F5099",
"<  c #0F5199",
"1  c #105199",
"2  c #10519A",
"3  c #11519A",
"4  c #11529A",
"5  c #12529A",
"6  c #12539A",
"7  c #13539B",
"8  c #14549B",
"9  c #15559C",
"0  c #16559C",
"q  c #17569C",
"w  c #18579D",
"e  c #19579D",
"r  c #1A589D",
"t  c #1A589E",
"y  c #1B599E",
"u  c #1C599E",
"i  c #1C5A9E",
"p  c #1D5A9F",
"a  c #1E5B9F",
"s  c #1F5B9F",
"d  c #205DA0",
"f  c #235EA1",
"g  c #235FA1",
"h  c #2460A2",
"j  c #2560A2",
"k  c #2660A2",
"l  c #2761A3",
"z  c #2862A3",
"x  c #2963A4",
"c  c #2B64A4",
"v  c #2B64A5",
"b  c #2B65A5",
"n  c #2C65A5",
"m  c #2D66A5",
"M  c #2E66A6",
"N  c #2E67A6",
"B  c #2F67A6",
"V  c #3068A7",
"C  c #3168A7",
"Z  c #3269A7",
"A  c #326AA8",
"S  c #336AA8",
"D  c #346AA8",
"F  c #366CA9",
"G  c #376DAA",
"H  c #386EAA",
"J  c #396EAA",
"K  c #3A6FAB",
"L  c #3C70AC",
"P  c #3C71AC",
"I  c #3D71AC",
"U  c #3E72AC",
"Y  c #3E72AD",
"T  c #4073AD",
"R  c #4174AE",
"E  c #4275AE",
"W  c #4476AF",
"Q  c #4577AF",
"!  c #4678B0",
"~  c #497AB1",
"^  c #4A7BB2",
"/  c #4B7CB2",
"(  c #4C7CB2",
")  c #4E7DB3",
"_  c #4F7EB4",
"`  c #517FB4",
"'  c #5180B5",
"]  c #5280B5",
"[  c #5481B6",
"{  c #5482B6",
"}  c #5583B6",
"|  c #5784B7",
" . c #5884B7",
".. c #5986B8",
"X. c #5A86B8",
"o. c #5E89BA",
"O. c #618BBB",
"+. c #648DBC",
"@. c #648EBD",
"#. c #658EBD",
"$. c #658FBD",
"%. c #668EBD",
"&. c #6790BE",
"*. c #6890BE",
"=. c #6891BE",
"-. c #6991BF",
";. c #6B93C0",
":. c #6C93C0",
">. c #6E94C1",
",. c #7096C1",
"<. c #7096C2",
"1. c #7197C2",
"2. c #7398C3",
"3. c #7499C3",
"4. c #769AC4",
"5. c #779BC5",
"6. c #789CC5",
"7. c #7B9EC6",
"8. c #7EA0C8",
"9. c #7FA1C8",
"0. c #81A2C9",
"q. c #83A4CA",
"w. c #85A5CA",
"e. c #86A6CB",
"r. c #88A7CC",
"t. c #88A8CC",
"y. c #89A8CC",
"u. c #8AA9CC",
"i. c #8AA9CD",
"p. c #8BAACD",
"a. c #8EACCE",
"s. c #8FACCF",
"d. c #90ADCF",
"f. c #93B0D1",
"g. c #94B0D1",
"h. c #95B1D1",
"j. c #96B2D2",
"k. c #97B2D2",
"l. c #98B3D3",
"z. c #9AB4D3",
"x. c #9AB5D4",
"c. c #9DB6D5",
"v. c #9DB7D5",
"b. c #9FB8D6",
"n. c #A1B9D6",
"m. c #A2BAD7",
"M. c #A3BBD7",
"N. c #A5BCD8",
"B. c #A7BED9",
"V. c #AAC0DA",
"C. c #ABC1DB",
"Z. c #ACC2DB",
"A. c #ADC2DB",
"S. c #ADC3DC",
"D. c #AFC4DD",
"F. c #B1C5DD",
"G. c #B2C6DE",
"H. c #B3C7DE",
"J. c #B4C7DF",
"K. c #B4C8DF",
"L. c #B5C8DF",
"P. c #B7CAE0",
"I. c #B8CBE0",
"U. c #B9CBE1",
"Y. c #BCCDE2",
"T. c #BDCEE2",
"R. c #BECFE3",
"E. c #C1D1E4",
"W. c #C2D2E4",
"Q. c #C4D3E5",
"!. c #C6D5E7",
"~. c #C7D5E7",
"^. c #C7D6E7",
"/. c #C8D6E7",
"(. c #CAD7E8",
"). c #CAD8E8",
"_. c #CBD8E8",
"`. c #CCD9E9",
"'. c #CDDAE9",
"]. c #CEDBEA",
"[. c #CFDCEA",
"{. c #D0DCEA",
"}. c #D0DCEB",
"|. c #D1DDEB",
" X c #D2DDEB",
".X c #D2DEEC",
"XX c #D4DFEC",
"oX c #D7E1EE",
"OX c #D7E2EE",
"+X c #D8E2EE",
"@X c #D9E3EF",
"#X c #DAE3EF",
"$X c #DCE5F0",
"%X c #DDE5F0",
"&X c #DDE6F0",
"*X c #DEE6F1",
"=X c #DFE7F1",
"-X c #E0E8F1",
";X c #E0E8F2",
":X c #E1E8F2",
">X c #E1E9F2",
",X c #E2E9F2",
"<X c #E4EBF3",
"1X c #E5EBF3",
"2X c #E5EBF4",
"3X c #E5ECF4",
"4X c #E6ECF4",
"5X c #E7ECF4",
"6X c #E7EDF4",
"7X c #E8EDF5",
"8X c #E8EEF5",
"9X c #E9EEF5",
"0X c #E9EFF5",
"qX c #EBF0F6",
"wX c #ECF1F7",
"eX c #EDF1F7",
"rX c #EDF2F7",
"tX c #EEF2F7",
"yX c #EEF2F8",
"uX c #EFF3F8",
"iX c #F0F3F8",
"pX c #F0F4F8",
"aX c #F1F4F9",
"sX c #F2F5F9",
"dX c #F3F6FA",
"fX c #F4F7FA",
"gX c #F5F7FA",
"hX c #F5F7FB",
"jX c #F5F8FB",
"kX c #F6F8FB",
"lX c #F7F9FB",
"zX c #F7F9FC",
"xX c #F8FAFC",
"cX c #F9FAFC",
"vX c #FAFBFD",
"bX c #FBFCFD",
"nX c #FCFCFE",
"mX c #FCFDFE",
"MX c #FDFDFE",
"NX c #FDFEFE",
"BX c #FEFEFE",
"VX c #FEFEFF",
"CX c #FFFEFF",
"ZX c white",
"AX c None",
/* pixels */
"AXAXAXAXAXAXAXAXAXAXAXAXAXAXAXAXAXAXAXAXAXAXAXAXAXAX& & & & & & & & & & & & AXAXAXAXAXAXAXAXAXAXAXAXAXAXAXAXAXAXAXAXAXAXAXAXAXAX",
"AXAXAXAXAXAXAXAXAXAXAXAXAXAXAXAXAXAXAXAXAXAX& & & & & & & & & & & & & & & & & & & & AXAXAXAXAXAXAXAXAXAXAXAXAXAXAXAXAXAXAXAXAXAX",
"AXAXAXAXAXAXAXAXAXAXAXAXAXAXAXAXAXAXAXAX& & & & & & & & & & & & & & & & & & & & & & & & AXAXAXAXAXAXAXAXAXAXAXAXAXAXAXAXAXAXAXAX",
"AXAXAXAXAXAXAXAXAXAXAXAXAXAXAXAXAX& & & & & & & & & & & & & & & & & & & & & & & & & & & & & & AXAXAXAXAXAXAXAXAXAXAXAXAXAXAXAXAX",
"AXAXAXAXAXAXAXAXAXAXAXAXAXAXAXAX& & & & & & & & & & & & & & & & & & & & & & & & & & & & & & & & AXAXAXAXAXAXAXAXAXAXAXAXAXAXAXAX",
"AXAXAXAXAXAXAXAXAXAXAXAXAXAX& & & & & & & & & & & & & & & & & & & & & & & & & & & & & & & & & & & & AXAXAXAXAXAXAXAXAXAXAXAXAXAX",
"AXAXAXAXAXAXAXAXAXAXAXAXAX& & & & & & & & & & & & & & & & & & & & & & & & & & & & & & & & & & & & & & AXAXAXAXAXAXAXAXAXAXAXAXAX",
"AXAXAXAXAXAXAXAXAXAXAX& & & & & & & & & & & & & & & & & & & & & & & & & & & & & & & & & & & & & & & & & & AXAXAXAXAXAXAXAXAXAXAX",
"AXAXAXAXAXAXAXAXAXAX& & & & & & & & & & & & & & & & & & & & & & & & & & & & & & & & & & & & & & & & & & & & AXAXAXAXAXAXAXAXAXAX",
"AXAXAXAXAXAXAXAXAX& & & & & & & & & & & & & & & & & & & & & & & & & & & & & & & & & & & & & & & & & & & & & & AXAXAXAXAXAXAXAXAX",
"AXAXAXAXAXAXAXAX& & & & & & & & & & & & & & & & & & & & & & & & & & & & & & & & & & & & & & & & & & & & & & & & AXAXAXAXAXAXAXAX",
"AXAXAXAXAXAXAX& & & & & & & & & & & & & & & & & & & & & & & & & & & & & & & & & & & & & & & & & & & & & & & & & & AXAXAXAXAXAXAX",
"AXAXAXAXAXAXAX& & & & & & & & & & & & & & & & & & & & & & & & & & & & & & & & & & & & & & & & & & & & & & & & & & AXAXAXAXAXAXAX",
"AXAXAXAXAXAX& & & & & & & & & & & & & & & & & & & & & & & & & & & & & & & & & & & & & & & & & & & & & & & & & & & & AXAXAXAXAXAX",
"AXAXAXAXAX& & & & & & & & & & & & & & & & & & & & & & & & & & & & & & & & & & & & & & & & & & & & & & & & & & & & & & AXAXAXAXAX",
"AXAXAXAXAX& & & & & & & & & & & & & & & & & & & & & & & & & & & & & & & & & & & & & & & & & & & & & & & & & & & & & & AXAXAXAXAX",
"AXAXAXAX& & & & & & & & & & & & & & & & & & & & & & & & & & & & & & & & & & & & & & & & & & & & & & & & & & & & & & & & AXAXAXAX",
"AXAXAX& & & & & & & & & & & & & & & & & & & & & & & & & & & & & & & & & & & & & & & & & & & & & & & & & & & & & & & & & & AXAXAX",
"AXAXAX& & & & & & & & & & & & & & & & & & & & & & & & & & & & & & & & & & & & & & & & & & & & & & & & & & & & & & & & & & AXAXAX",
"AXAXAX& & & & & & & & & & & & & & & & & & & & & & & & & & & & & & & & & & & & & & & & O                   % & & & & & & & AXAXAX",
"AXAX& & & & & & & & & & & & & & & & & & & & & & & & & & & & & & & & & & & & & & & & ; Y $.&.&.&.&.&.&.=.' 6 % & & & & & & & AXAX",
"AXAX& & & & & & & & & & & & & & & & & & & & & & & & & & & & & & & & & & & & & & & $ ,.rXZXZXZXZXZXZXZXZXaXW O & & & & & & & AXAX",
"AX& & & & & & & & & & & & & & & & & & & & & & & & & & & & & & & & & & & & & & & @ z %XZXZXZXZXZXZXZXZXZX6XA + & & & & & & & & AX",
"AX& & & & & & & & & & & & & & & & & & & & & & & & & & & & & & & & & & & & & & &   -.BXZXZXZXZXZXZXZXZXZXA.> & & & & & & & & & AX",
"AX& & & & & & & & & & & & & & & & & & & & & & & & & & & & & & & & & & & & & & & 3 K.ZXZXZXZXZXZXZXZXZXnXO.  & & & & & & & & & AX",
"AX& & & & & & & & & & & & & & & & & & & & & & & & & & & & & & & & & & & & & & O J qXZXZXZXZXZXZXZXZXZX@Xh @ & & & & & & & & & AX",
"& & & & & & & & & & & & & & & & & & & & & & & & & & $ + @ @ @ @ @ @ @ $ & & & O 9.ZXZXZXZXZXZXZXZXZXZXj.& & & & & & & & & & & & ",
"& & & & & & & & & & & & & & & & & & & & & & & & & # p v c c c c c c c w % & $ w ^.ZXZXZXZXZXZXZXZXZXhX/ X & & & & & & & & & & & ",
"& & & & & & & & & & & & & & & & & & & & & & & & = #.}.2X1X1X1X1X1X1X5XZ.q $ X ^ gXZXZXZXZXZXZXZXZXZX/.e $ & & & & & & & & & & & ",
"& & & & & & & & & & & & & & & & & & & & & & & O K 9XZXZXZXZXZXZXZXZXZX|.y $ $ h.ZXZXZXZXZXZXZXZXZXZX9.O & & & & & & & & & & & & ",
"& & & & & & & & & & & & & & & & & & & & & & & + r.ZXZXZXZXZXZXZXZXZXZXa.# @ g +XZXZXZXZXZXZXZXZXZXqXH O & & & & & & & & & & & & ",
"& & & & & & & & & & & & & & & & & & & & & & $ i ].ZXZXZXZXZXZXZXZXZXsXQ O   o.bXZXZXZXZXZXZXZXZXZXH.1 & & & & & & & & & & & & & ",
"& & & & & & & & & & & & & & & & & & & & & &   ] zXZXZXZXZXZXZXZXZXZXW.0 $ : V.ZXZXZXZXZXZXZXZXZXNX&.  & & & & & & & & & & & & & ",
"& & & & & & & & & # O O O O O O O O @ & & & * c.ZXZXZXZXZXZXZXZXZXZX6.O + C 3XZXZXZXZXZXZXZXZXZX&Xz @ & & & & & & & & & & & & & ",
"& & & & & & & & # d G H H H H H H H l = & @ z &XZXZXZXZXZXZXZXZXZX7XD O . 3.ZXZXZXZXZXZXZXZXZXZXc.* & & & & & & & & & & & & & & ",
"& & & & & & & #  ..XyXyXyXyXyXyXyXiX|.M +   %.MXZXZXZXZXZXZXZXZXZXS., $ 8 R.ZXZXZXZXZXZXZXZXZXlX`   & & & & & & & & & & & & & & ",
"& & & & & & @ k oXZXZXZXZXZXZXZXZXZX8XC O < F.ZXZXZXZXZXZXZXZXZXmXO.  O R pXZXZXZXZXZXZXZXZXZX`.y $ & & & & & & & & & & & & & & ",
"& & & & & &   *.BXZXZXZXZXZXZXZXZXZXD., O F 0XZXZXZXZXZXZXZXZXZX#Xj @ + u.ZXZXZXZXZXZXZXZXZXZXw.+ & & & & & & & & & & & & & & & ",
"AX& & & & & 3 L.ZXZXZXZXZXZXZXZXZXMX+.  O 7.ZXZXZXZXZXZXZXZXZXZXk.& # p {.ZXZXZXZXZXZXZXZXZXtXI O & & & & & & & & & & & & & & AX",
"AX& & & & O K wXZXZXZXZXZXZXZXZXZX$Xl O q Q.ZXZXZXZXZXZXZXZXZXjX(     { xXZXZXZXZXZXZXZXZXZXI.5 % & & & & & & & & & & & & & & AX",
"AX& & & & O 0.ZXZXZXZXZXZXZXZXZXZXx.& X ! dXZXZXZXZXZXZXZXZXZX/.e $ = b.ZXZXZXZXZXZXZXZXZXVX:.  & & & & & & & & & & & & & & & AX",
"AX& & & $ r (.ZXZXZXZXZXZXZXZXZXkX_   # d.ZXZXZXZXZXZXZXZXZXZX9.O @ x =XZXZXZXZXZXZXZXZXZX:Xb + & & & & & & & & & & & & & & & AX",
"AXAX& &   ) kXZXZXZXZXZXZXZXZXZX_.t O d XXZXZXZXZXZXZXZXZXZXqXJ O   -.BXZXZXZXZXZXZXZXZXZXm.- & & & & & & & & & & & & & & & AXAX",
"AXAX& & & z.ZXZXZXZXZXZXZXZXZXZXq.O   ..vXZXZXZXZXZXZXZXZXZXJ.2 $ 3 K.ZXZXZXZXZXZXZXZXZXcX}   & & & & & & & & & & & & & & & AXAX",
"AXAXAX@ l $XZXZXZXZXZXZXZXZXZXeXL O - N.ZXZXZXZXZXZXZXZXZXNX*.  O J qXZXZXZXZXZXZXZXZXZX}.a # & & & & & & & & & & & & & & AXAXAX",
"AXAXAX  @.MXZXZXZXZXZXZXZXZXZXP.4 O m ,XZXZXZXZXZXZXZXZXZX*Xx @ O 8.ZXZXZXZXZXZXZXZXZXZXi.+ & & & & & & & & & & & & & & & AXAXAX",
"AXAXAXq G.ZXZXZXZXZXZXZXZXZXBX;.    >.CXZXZXZXZXZXZXZXZXZXv.* $ w ~.ZXZXZXZXZXZXZXZXZXpXR O & & & & & & & & & & & & & & & AXAXAX",
"AXAXAXAXsXZXZXZXZXZXZXZXZXZX-Xc O 5 U.ZXZXZXZXZXZXZXZXZXzX]   X ^ fXZXZXZXZXZXZXZXZXZXT.8 % & & & & & & & & & & & & & & AXAXAXAX",
"AXAXAXAXAXZXZXZXZXZXZXZXZXZXn.= O P rXZXZXZXZXZXZXZXZXZX'.u # $ g.ZXZXZXZXZXZXZXZXZXZX1.  & & & & & & & & & & & & & & AXAXAXAXAX",
"AXAXAXAXAXZXZXZXZXZXZXZXZXxX{   O q.ZXZXZXZXZXZXZXZXZXZXe.+ @ f OXZXZXZXZXZXZXZXZXZX<XB + & & & & & & & & & & & & & & AXAXAXAXAX",
"AXAXAXAXAXAXZXZXZXZXZXZXZX{.p + t ).ZXZXZXZXZXZXZXZXZXyXU O   o.bXZXZXZXZXZXZXZXZXZXB.; & & & & & & & & & & & & & & AXAXAXAXAXAX",
"AXAXAXAXAXAXAXZXZXZXZXZXZXy.+   ) kXZXZXZXZXZXZXZXZXZXU.6 $ : V.ZXZXZXZXZXZXZXZXZXvXX.  & & & & & & & & & & & & & AXAXAXAXAXAXAX",
"AXAXAXAXAXAXAXAXZXZXZXZXuXT O & l.ZXZXZXZXZXZXZXZXZXVX>.  + V 3XZXZXZXZXZXZXZXZXZXXXd # & & & & & & & & & & & & & AXAXAXAXAXAXAX",
"AXAXAXAXAXAXAXAXZXZXZXZXY.7 + j #XZXZXZXZXZXZXZXZXZX,Xn + . 2.ZXZXZXZXZXZXZXZXZXZXs.# & & & & & & & & & & & & & AXAXAXAXAXAXAXAX",
"AXAXAXAXAXAXAXAXAXZXZXZX<.    O.mXZXZXZXZXZXZXZXZXZXM.- $ 8 R.ZXZXZXZXZXZXZXZXZXsXQ O & & & & & & & & & & & & AXAXAXAXAXAXAXAXAX",
"AXAXAXAXAXAXAXAXAXAXZX>XN O > A.ZXZXZXZXZXZXZXZXZXcX|   O R pXZXZXZXZXZXZXZXZXZXE.9 $ & & & & & & & & & & & AXAXAXAXAXAXAXAXAXAX",
"AXAXAXAXAXAXAXAXAXAXAXt.< O S 6XZXZXZXZXZXZXZXZXZX Xs # + y.ZXZXZXZXZXZXZXZXZXZX4.o & & & & & & & & & & & AXAXAXAXAXAXAXAXAXAXAX",
"AXAXAXAXAXAXAXAXAXAXAXAXAXO 5.ZXZXZXZXZXZXZXZXZXZXp.@ # p [.ZXZXZXZXZXZXZXZXZX4XZ + & & & & & & & & & AXAXAXAXAXAXAXAXAXAXAXAXAX",
"AXAXAXAXAXAXAXAXAXAXAXAXAXAX!.ZXZXZXZXZXZXZXZXZXaXE O   [ xXZXZXZXZXZXZXZXZXZXC.: & & & & & & & & & AXAXAXAXAXAXAXAXAXAXAXAXAXAX",
"AXAXAXAXAXAXAXAXAXAXAXAXAXAXAXAXZXZXZXZXZXZXZXZXR.8 $ = b.ZXZXZXZXZXZXZXZXZXbXo.  & & & & & & & AXAXAXAXAXAXAXAXAXAXAXAXAXAXAXAX",
"AXAXAXAXAXAXAXAXAXAXAXAXAXAXAXAXAXZXZXZXZXZXZXZX2.. @ x =XZXZXZXZXZXZXZXZXZXoXf @ & & & & & & AXAXAXAXAXAXAXAXAXAXAXAXAXAXAXAXAX",
"AXAXAXAXAXAXAXAXAXAXAXAXAXAXAXAXAXAXAXAXZXZXZX<XV +   *.NXZXZXZXZXZXZXZXZXZXf.$ & & & & AXAXAXAXAXAXAXAXAXAXAXAXAXAXAXAXAXAXAXAX",
"AXAXAXAXAXAXAXAXAXAXAXAXAXAXAXAXAXAXAXAXAXAXZXV., $ 5 L.ZXZXZXZXZXZXZXZXZXdX~   & & AXAXAXAXAXAXAXAXAXAXAXAXAXAXAXAXAXAXAXAXAXAX",
"AXAXAXAXAXAXAXAXAXAXAXAXAXAXAXAXAXAXAXAXAXAXAXAXAXAXM 1XZXZXZXZXZXZXZXZXZX;XAXAXAXAXAXAXAXAXAXAXAXAXAXAXAXAXAXAXAXAXAXAXAXAXAXAX"
};
