<?xml version="1.0" standalone="no"?>
<!DOCTYPE svg PUBLIC "-//W3C//DTD SVG 20010904//EN"
 "http://www.w3.org/TR/2001/REC-SVG-20010904/DTD/svg10.dtd">
<svg version="1.0" xmlns="http://www.w3.org/2000/svg"
 width="1024.000000pt" height="1024.000000pt" viewBox="0 0 1024.000000 1024.000000"
 preserveAspectRatio="xMidYMid meet">
<metadata>
Created by potrace 1.16, written by Peter Selinger 2001-2019
</metadata>
<g transform="translate(0.000000,1024.000000) scale(0.100000,-0.100000)"
fill="#000000" stroke="none">
<path d="M4925 9874 c-365 -22 -625 -58 -924 -130 -1026 -245 -1934 -817
-2585 -1627 -496 -618 -816 -1316 -970 -2114 -214 -1107 -13 -2290 557 -3275
197 -340 393 -603 665 -893 1017 -1081 2543 -1622 4042 -1434 955 119 1853
520 2555 1139 563 497 997 1113 1268 1801 79 199 94 245 152 446 317 1093 238
2242 -226 3292 -106 240 -292 567 -443 781 -285 405 -644 778 -1022 1063 -691
520 -1532 844 -2419 931 -150 15 -537 27 -650 20z m730 -263 c574 -75 1045
-220 1540 -475 871 -448 1569 -1164 1996 -2051 249 -517 393 -1054 440 -1639
15 -187 6 -632 -15 -816 -102 -859 -426 -1653 -944 -2310 -693 -877 -1702
-1475 -2803 -1659 -291 -49 -387 -56 -759 -56 -361 1 -465 8 -745 56 -2057
354 -3590 2037 -3756 4123 -17 216 -7 665 20 874 46 357 130 706 247 1024 475
1293 1519 2301 2834 2735 326 108 675 179 1040 213 52 4 241 7 420 5 260 -2
357 -7 485 -24z"/>
<path d="M5137 6750 c-563 -71 -1006 -407 -1292 -980 -148 -295 -222 -609
-232 -986 -13 -456 78 -789 294 -1075 268 -356 703 -542 1208 -515 549 29 952
271 1255 752 59 93 156 282 148 289 -7 7 -634 175 -652 175 -7 0 -27 -30 -45
-67 -146 -299 -350 -485 -588 -537 -90 -20 -265 -20 -356 -1 -187 39 -336 161
-426 347 -55 114 -74 178 -92 313 -11 87 -7 325 7 388 l6 27 1164 0 1163 0 7
46 c11 75 -3 510 -20 615 -33 206 -75 346 -150 505 -181 380 -464 602 -876
685 -109 22 -412 33 -523 19z m389 -546 c224 -49 368 -207 434 -473 19 -75 40
-247 40 -322 l0 -39 -774 0 -775 0 25 92 c68 254 188 465 333 585 85 70 136
98 245 135 141 47 322 56 472 22z"/>
</g>
</svg>
